<svg id="Layer_1" data-name="Layer 1" xmlns="http://www.w3.org/2000/svg" viewBox="0 0 178 171"><defs><style>.cls-1{fill:#004394;}.cls-2{fill:#fff;}</style></defs><ellipse class="cls-1" cx="89" cy="85.5" rx="89" ry="85.5"/><path class="cls-2" d="M89,26.69a3.56,3.56,0,0,1,1.87,1.55,4.08,4.08,0,0,1,.47,1.87q0,3.44-4.36,3.43H65.58a17,17,0,0,0-10.14,3.52,22.69,22.69,0,0,0-7.32,8.84,19.35,19.35,0,0,0-2.18,7.81v56q1.25,12.19,12.78,17.35a21.46,21.46,0,0,0,8.88,2H88.8A3.25,3.25,0,0,1,91,130.84a5.63,5.63,0,0,1,.31,1.75,5.16,5.16,0,0,1-.15,1.44c-.52,1.06-1.09,1.65-1.72,1.75l-1.71.32-22.29-.16a23,23,0,0,1-13.56-4.52A30.44,30.44,0,0,1,42,120a31.32,31.32,0,0,1-3.12-14.2V53.69a24,24,0,0,1,4.29-13.58,29.84,29.84,0,0,1,11.14-10,25.76,25.76,0,0,1,12.16-3.43Z"/><path class="cls-2" d="M119.63,28.86l.31,1.25V133.52a3.14,3.14,0,0,1-1.44,1.78,4.14,4.14,0,0,1-2.23.7,2.61,2.61,0,0,1-1.12-.31c-1.48-.52-2.23-2.48-2.23-5.9V29.64A3.46,3.46,0,0,1,116.35,27,3.81,3.81,0,0,1,119.63,28.86Z"/></svg>